<?xml version="1.0"?>
<svg xmlns="http://www.w3.org/2000/svg" xmlns:xlink="http://www.w3.org/1999/xlink" version="1.1" id="Capa_1" x="0px" y="0px" width="512px" height="512px" viewBox="0 0 539.803 539.803" style="enable-background:new 0 0 539.803 539.803;" xml:space="preserve"><g><g>
	<g>
		<path d="M469.319,280.607c-0.031-0.164-0.057-0.324-0.086-0.488c-0.723-3.752-1.531-7.559-2.363-11.39l0,0    c-1.125-5.153-2.318-10.349-3.641-15.612c-2.307-9.18-4.914-18.513-7.809-27.907c-2.889-9.4-6.066-18.868-9.5-28.317    c-3.439-9.456-7.141-18.893-11.088-28.231c-1.977-4.669-4.016-9.315-6.115-13.929c-4.191-9.223-8.629-18.305-13.285-27.167    c-4.658-8.861-9.535-17.503-14.615-25.832c-5.08-8.33-10.367-16.365-15.844-24.003c-5.479-7.644-11.139-14.896-16.971-21.677    c-8.752-10.172-17.883-19.291-27.34-27.063c-6.303-5.184-12.754-9.773-19.326-13.678c-6.578-3.911-13.279-7.142-20.092-9.614    C291.024,1.995,280.56,0,269.898,0s-21.126,1.995-31.347,5.698c-6.812,2.473-13.519,5.704-20.092,9.614    c-6.573,3.911-13.023,8.495-19.327,13.678c-9.456,7.772-18.592,16.891-27.338,27.063c-5.833,6.781-11.494,14.033-16.971,21.677    c-5.478,7.644-10.765,15.673-15.845,24.003c-10.166,16.671-19.511,34.56-27.901,52.999c-2.099,4.608-4.137,9.26-6.114,13.929    c-3.954,9.339-7.656,18.776-11.089,28.231c-3.439,9.456-6.61,18.923-9.498,28.317c-2.889,9.4-5.496,18.727-7.81,27.907    c-0.789,3.133-1.493,6.218-2.209,9.308l0,0c-0.833,3.599-1.61,7.154-2.344,10.686c-0.489,2.338-1.01,4.699-1.457,7.008    c-1.652,8.574-2.986,16.922-4.015,24.975c-1.616,12.596-2.46,24.463-2.46,35.295c0,0.244,0.018,0.482,0.018,0.729    c0.037,10.402,0.826,20.574,2.356,30.459c0.587,3.795,1.303,7.539,2.099,11.254c0.777,3.623,1.665,7.197,2.631,10.729    c0.875,3.207,1.83,6.377,2.864,9.51l0,0c0.808,2.455,1.622,4.902,2.521,7.309c2.307,6.168,4.915,12.178,7.809,18.01    c2.889,5.84,6.065,11.5,9.499,16.979c3.433,5.477,7.142,10.771,11.089,15.855c2.913,3.752,6.003,7.357,9.18,10.883    c6.414,7.123,13.342,13.781,20.741,19.926c2.785,2.307,5.625,4.547,8.538,6.707c2.16,1.604,4.351,3.17,6.579,4.689    c6.958,4.748,14.21,9.131,21.787,13.023c8.488,4.363,17.344,8.15,26.506,11.346c9.162,3.188,18.629,5.777,28.354,7.723    c1.071,0.215,2.142,0.43,3.219,0.625c3.238,0.6,6.5,1.125,9.792,1.578c9.866,1.365,19.963,2.082,30.239,2.082    c13.702,0,27.081-1.273,40.03-3.666c1.078-0.195,2.148-0.41,3.221-0.625c14.584-2.918,28.598-7.275,41.854-12.955    c4.42-1.893,8.758-3.93,13-6.115c7.57-3.891,14.822-8.273,21.787-13.023c2.227-1.518,4.418-3.084,6.578-4.688    c2.914-2.16,5.754-4.4,8.537-6.707c3.611-2.998,7.148-6.07,10.527-9.309c3.549-3.396,6.928-6.965,10.213-10.617    c3.178-3.533,6.268-7.131,9.182-10.883c3.953-5.092,7.656-10.379,11.088-15.857c3.434-5.477,6.611-11.137,9.5-16.977    c2.889-5.838,5.494-11.848,7.809-18.01c0.967-2.584,1.848-5.209,2.705-7.84c0.967-2.957,1.854-5.949,2.68-8.973    c0.705-2.559,1.334-5.146,1.934-7.754c1.078-4.682,2.051-9.412,2.797-14.229c0.926-5.992,1.543-12.1,1.928-18.281    c0.264-4.266,0.447-8.555,0.447-12.906c0-7.969-0.502-16.531-1.377-25.49C473.261,304.029,471.601,292.555,469.319,280.607z     M85.007,271.184c35.343,25.508,107.338,49.791,189.671,49.791c76.646,0,143.967-21.039,181.188-44.521    c0.852,4.082,1.635,8.102,2.352,12.074c-37.248,23.867-105.846,45.49-183.539,45.49c-84.187,0-157.603-25.387-192.04-51.512    C83.367,278.777,84.163,274.996,85.007,271.184z M446.118,419.055c-77.957,59.168-172.168,67.088-240.688,51.523    c-48.072-10.146-84.505-30.855-111.757-51.48c-5.967-12.748-10.557-26.279-13.488-40.465c5.343-2.16,10.814-3.574,16.34,0.195    c12.497,8.305,5.753,38.311,18.262,43.758c12.797,5.525,38.929-16.182,49.162-10.52c10.11,5.844,26.634,42.668,43.685,43.078    c16.891,0.525,36.573-25.111,47.191-24.102c10.459,1.242,37.596,28.588,53.374,26.127c15.721-2.215,30.996-36.059,38.035-37.111    c6.896-0.691,42.834,22.418,55.129,16.145c12.215-5.918,18.035-45.771,24.785-49.762c4.346-2.363,19.096,0.08,31.525,0.41    C454.813,398.051,450.915,408.803,446.118,419.055z M462.079,362.971c-14.822,0.318-44.848-11.83-54.896-9.154    c-11.262,4.082-29.188,43.75-39.223,46.48c-9.469,3.354-38.637-21.775-52.762-21.262c-13.953,1.377-41.451,29.818-55.532,29.23    c-13.685-0.074-28.856-29.205-43.293-34.518c-14.088-4.633-49.358,17.932-64.958,13.984c-15.336-3.385-19.015-37.92-30.374-44.799    c-9.798-5.973-28.739,7.02-44.553,4.73c-0.092-2.416-0.184-4.834-0.184-7.275c0-8.734,0.643-18.25,1.774-28.27    c35.845,20.668,86.586,39.457,141.697,46.391c66.303,5.771,143.77,11.352,242.805-37.596c0.562,6.799,0.893,13.336,0.893,19.475    C463.468,348.051,462.966,355.572,462.079,362.971z" data-original="#000000" class="active-path" data-old_color="#000000" fill="#69E781"/>
	</g>
</g></g> </svg>
