<svg id="Capa_1" enable-background="new 0 0 512 512" height="512" viewBox="0 0 512 512" width="512" xmlns="http://www.w3.org/2000/svg"><g id="XMLID_874_"><path id="XMLID_2360_" d="m350.966 354h96v-19.665c0-34.756-20.79-66.142-52.793-79.7-26.192-11.096-43.207-36.783-43.207-65.229z" fill="#79b2ff"/><path id="XMLID_2357_" d="m161.034 354h-96v-19.665c0-34.756 20.79-66.142 52.793-79.7 26.192-11.096 43.207-36.783 43.207-65.229z" fill="#79b2ff"/><path id="XMLID_2592_" d="m201.892 398.667v1.114c0 40.93 20.261 79.206 54.108 102.22 33.847-23.013 54.108-61.29 54.108-102.22v-1.114z" fill="#ffd6c1"/><path id="XMLID_2359_" d="m256 10c-59.406 40.391-94.966 107.569-94.966 179.406v164.594h189.931v-164.594c.001-71.836-35.559-139.015-94.965-179.406z" fill="#ffd89e"/><path id="XMLID_2484_" d="m174.636 113.809h162.728c-15.483-41.636-43.604-78.135-81.364-103.809-37.76 25.674-65.881 62.173-81.364 103.809z" fill="#f9f9f9"/><path id="XMLID_2536_" d="m176 354h160v44h-160z" fill="#f5737f"/><g id="XMLID_2457_"><g id="XMLID_2458_"><path id="XMLID_2511_" d="m398.074 245.427c-22.542-9.55-37.108-31.539-37.108-56.021 0-.005-.001-.009-.001-.014-.005-75.216-37.141-145.37-99.343-187.661-3.394-2.308-7.852-2.308-11.245 0-62.206 42.294-99.343 112.454-99.343 187.675 0 24.482-14.566 46.471-37.108 56.021-35.775 15.156-58.892 50.055-58.892 88.908v19.665c0 5.522 4.477 10 10 10h100.966v34c0 5.522 4.477 10 10 10h16.144c2.523 41.136 23.888 78.918 58.233 102.27 1.697 1.153 3.66 1.73 5.623 1.73s3.926-.577 5.623-1.73c34.346-23.353 55.71-61.134 58.233-102.27h16.144c5.523 0 10-4.478 10-10v-34h100.966c5.523 0 10-4.478 10-10v-19.665c0-38.853-23.117-73.752-58.892-88.908zm-142.074-223.197c29.198 21.297 51.874 49.523 66.434 81.579h-21.434c-5.523 0-10 4.477-10 10s4.477 10 10 10h29.308c6.969 20.868 10.657 42.98 10.657 65.597v154.594h-169.931v-154.594c0-22.616 3.688-44.729 10.657-65.597h29.33c5.523 0 10-4.477 10-10s-4.477-10-10-10h-21.456c14.561-32.055 37.236-60.282 66.435-81.579zm-180.966 312.105c0-30.806 18.328-58.476 46.694-70.492 11.499-4.871 21.427-12.186 29.306-21.181v101.338h-76zm180.966 155.318c-25.577-19.769-41.474-49.451-43.8-81.652h87.6c-2.326 32.2-18.223 61.883-43.8 81.652zm70-101.653h-140v-24h140zm110.966-44h-76v-101.339c7.879 8.996 17.808 16.31 29.307 21.182 28.366 12.017 46.694 39.687 46.694 70.492v9.665z"/><path id="XMLID_2502_" d="m256 245.087c10.628 0 19.274 7.433 19.274 16.568s-8.646 16.567-19.274 16.567-19.274-7.432-19.274-16.567c0-5.523-4.477-10-10-10s-10 4.477-10 10c0 16.946 12.447 31.233 29.274 35.362v3.275c0 5.522 4.477 10 10 10s10-4.478 10-10v-3.275c16.827-4.129 29.274-18.416 29.274-35.362 0-20.164-17.619-36.568-39.274-36.568-10.628 0-19.274-7.432-19.274-16.568s8.646-16.568 19.274-16.568 19.274 7.432 19.274 16.568c0 5.523 4.477 10 10 10s10-4.477 10-10c0-16.947-12.447-31.234-29.274-35.363v-5.639c0-5.523-4.477-10-10-10s-10 4.477-10 10v5.639c-16.827 4.129-29.274 18.416-29.274 35.363 0 20.164 17.618 36.568 39.274 36.568z"/><path id="XMLID_2501_" d="m352 438c-5.523 0-10 4.478-10 10v54c0 5.522 4.477 10 10 10s10-4.478 10-10v-54c0-5.522-4.477-10-10-10z"/><path id="XMLID_2460_" d="m160 438c-5.523 0-10 4.478-10 10v54c0 5.522 4.477 10 10 10s10-4.478 10-10v-54c0-5.522-4.477-10-10-10z"/><path id="XMLID_2459_" d="m256 123.81c2.63 0 5.21-1.07 7.07-2.93s2.93-4.44 2.93-7.07-1.07-5.21-2.93-7.07-4.44-2.93-7.07-2.93-5.21 1.07-7.07 2.93-2.93 4.44-2.93 7.07 1.07 5.21 2.93 7.07 4.44 2.93 7.07 2.93z"/></g></g></g></svg>