<svg id="Capa_1" enable-background="new 0 0 512.019 512.019" height="512" viewBox="0 0 512.019 512.019" width="512" xmlns="http://www.w3.org/2000/svg"><g id="XMLID_1412_"><path id="XMLID_2517_" d="m110.726 330.44-91.778 91.778c-11.988 11.988-11.893 31.7.211 43.804 12.104 12.104 31.816 12.199 43.804.211l91.779-91.779z" fill="#79b2ff"/><path id="XMLID_1165_" d="m94.71 337.074h44.548v62.247h-44.548z" fill="#f9f9f9" transform="matrix(.707 -.707 .707 .707 -226.091 190.563)"/><circle id="XMLID_2515_" cx="240.272" cy="244.725" fill="#9bc6ff" r="153.874"/><circle id="XMLID_2513_" cx="240.272" cy="244.725" fill="#fff" r="108"/><circle id="XMLID_2551_" cx="240.272" cy="244.725" fill="#ffd89e" r="32"/><circle id="XMLID_1161_" cx="416.141" cy="68.855" fill="#f6838d" r="32"/><circle id="XMLID_1168_" cx="64.402" cy="68.855" fill="#78d0a9" r="32"/><g id="XMLID_3726_"><g id="XMLID_3727_"><path id="XMLID_3980_" d="m509.09 147.661-57.04-57.04c3.864-6.351 6.091-13.803 6.091-21.766 0-23.159-18.841-42-42-42s-42 18.841-42 42c0 7.963 2.227 15.415 6.091 21.766l-31.432 31.433c-28.927-25.621-66.939-41.203-108.529-41.203-41.589 0-79.602 15.582-108.528 41.203l-31.433-31.433c3.864-6.351 6.091-13.803 6.091-21.766 0-23.159-18.841-42-42-42s-42 18.841-42 42 18.841 42 42 42c7.963 0 15.415-2.227 21.766-6.091l31.433 31.433c-25.621 28.927-41.203 66.939-41.203 108.529 0 30.34 8.298 58.775 22.729 83.171l-87.25 87.25c-15.918 15.918-15.823 41.913.211 57.947 7.73 7.729 18.019 12.017 28.969 12.069h.204c10.91 0 21.122-4.207 28.773-11.858l87.299-87.298c24.344 14.346 52.695 22.591 82.938 22.591 27.006 0 53.778-6.711 77.423-19.406 4.866-2.613 6.692-8.676 4.08-13.541-2.613-4.867-8.677-6.692-13.541-4.08-20.746 11.14-44.246 17.027-67.962 17.027-79.332 0-143.873-64.541-143.873-143.873s64.541-143.874 143.873-143.874c36.075 0 69.089 13.349 94.369 35.363l-18.344 18.344c-20.55-17.354-47.085-27.833-76.025-27.833-65.065 0-118 52.935-118 118s52.935 118 118 118 118-52.935 118-118c0-28.94-10.479-55.475-27.833-76.025l18.344-18.344c22.014 25.28 35.363 58.294 35.363 94.369 0 23.714-5.889 47.215-17.028 67.962-2.612 4.865-.786 10.928 4.08 13.541 4.864 2.61 10.928.786 13.541-4.08 12.696-23.646 19.407-50.418 19.407-77.423 0-41.589-15.582-79.602-41.203-108.529l31.433-31.433c6.352 3.864 13.803 6.091 21.766 6.091s15.415-2.227 21.766-6.091l57.04 57.04c1.953 1.952 4.512 2.929 7.071 2.929s5.118-.977 7.071-2.929c3.907-3.905 3.907-10.237.002-14.142zm-453.198 311.503c-3.896 3.896-9.098 6.005-14.738 6-5.645-.027-10.944-2.233-14.923-6.212-8.236-8.236-8.331-21.543-.211-29.662l53.207-53.207 29.873 29.873zm84.565-84.566-17.215 17.215-29.873-29.873 17.191-17.191c8.644 11.184 18.699 21.222 29.897 29.849zm-98.055-305.743c0-12.131 9.869-22 22-22s22 9.869 22 22-9.869 22-22 22-22-9.869-22-22zm259.7 99.897-40.064 40.064c-6.352-3.864-13.803-6.091-21.766-6.091s-15.415 2.227-21.766 6.091l-40.064-40.064c16.878-13.762 38.406-22.027 61.83-22.027s44.952 8.266 61.83 22.027zm-61.831 53.973c12.131 0 22 9.869 22 22s-9.869 22-22 22-22-9.869-22-22 9.87-22 22-22zm0 120c-54.037 0-98-43.963-98-98 0-23.425 8.265-44.952 22.027-61.83l40.064 40.064c-3.864 6.351-6.091 13.803-6.091 21.766 0 23.159 18.841 42 42 42s42-18.841 42-42c0-7.963-2.227-15.415-6.091-21.766l40.064-40.064c13.762 16.878 22.027 38.406 22.027 61.83 0 54.037-43.962 98-98 98zm153.871-273.87c0-12.131 9.869-22 22-22s22 9.869 22 22-9.869 22-22 22-22-9.869-22-22z"/><path id="XMLID_3729_" d="m349.078 343.529c-2.63 0-5.21 1.07-7.069 2.931-1.86 1.859-2.931 4.439-2.931 7.069s1.07 5.21 2.931 7.07c1.859 1.86 4.439 2.93 7.069 2.93s5.21-1.069 7.07-2.93 2.93-4.44 2.93-7.07-1.069-5.21-2.93-7.069c-1.86-1.861-4.44-2.931-7.07-2.931z"/></g></g></g></svg>